<?xml version="1.0"?>
<svg version="1.1" xmlns="http://www.w3.org/2000/svg" width="172px" height="48px" style=""><path fill="#f00e4e" d="M51.01513671875,32.2177734375l0-2.5458984375q0-2.642578125,0.088623046875-5.244873046875t0.153076171875-5.244873046875q0-0.49951171875-0.0322265625-1.11181640625q-0.01611328125-0.17724609375-0.01611328125-0.33837890625q0-0.40283203125,0.064453125-0.78955078125q0.08056640625-0.515625,0.394775390625-0.88623046875t1.039306640625-0.37060546875q0.59619140625,0,0.910400390625,0.12890625t0.443115234375,0.378662109375t0.14501953125,0.62841796875t0.01611328125,0.878173828125q0,2.6748046875-0.064453125,5.36572265625q-0.04833984375,1.78857421875-0.04833984375,3.5771484375q0,0.90234375,0.01611328125,1.8046875q0.0322265625,2.6748046875,0.249755859375,5.349609375t0.733154296875,5.28515625q1.611328125-0.064453125,3.22265625-0.1611328125t3.22265625-0.0966796875q0.1611328125,0,0.459228515625,0.0322265625t0.59619140625,0.11279296875t0.507568359375,0.20947265625t0.20947265625,0.37060546875q0,0.1611328125-0.14501953125,0.27392578125t-0.27392578125,0.17724609375l-0.0322265625,0q-0.2578125,0.12890625-1.023193359375,0.249755859375t-1.740234375,0.185302734375t-2.04638671875,0.11279296875t-2.01416015625,0.08056640625t-1.635498046875,0.04833984375t-0.85400390625,0.01611328125l-0.14501953125,0q-0.38671875,0-0.8701171875-0.12890625q-0.580078125-0.1611328125-0.72509765625-0.62841796875q-0.2900390625-1.1923828125-0.459228515625-2.473388671875t-0.2578125-2.602294921875t-0.088623046875-2.642578125z M65.640678710938,34.48974609375q0-1.095703125,0.298095703125-2.11083984375t0.894287109375-1.812744140625t1.490478515625-1.27294921875t2.070556640625-0.475341796875q0.72509765625,0,1.603271484375,0.217529296875t1.651611328125,0.64453125t1.2890625,1.087646484375t0.515625,1.5146484375q0,0.40283203125-0.136962890625,0.6123046875t-0.555908203125,0.20947265625l-0.17724609375-0.0322265625q0.46728515625,1.2568359375,0.8056640625,2.578125t0.66064453125,2.642578125q0.12890625,0.2578125,0.193359375,0.459228515625t0.064453125,0.394775390625q0,0.2578125-0.14501953125,0.427001953125t-0.378662109375,0.249755859375t-0.4833984375,0.11279296875t-0.443115234375,0.0322265625q-0.69287109375,0-1.039306640625-0.24169921875t-0.49951171875-0.66064453125t-0.185302734375-0.942626953125t-0.12890625-1.055419921875q-0.193359375,0.62841796875-0.507568359375,1.224609375t-0.7412109375,1.071533203125t-1.007080078125,0.75732421875t-1.30517578125,0.281982421875q-1.0634765625,0-1.78857421875-0.6123046875t-1.168212890625-1.506591796875t-0.64453125-1.909423828125t-0.201416015625-1.88525390625z M67.928764648438,34.26416015625q0,0.59619140625,0.08056640625,1.2568359375t0.265869140625,1.30517578125t0.475341796875,1.216552734375t0.72509765625,1.007080078125q0.78955078125-0.85400390625,1.168212890625-2.07861328125t0.6767578125-2.360595703125t0.6767578125-1.94970703125t1.168212890625-0.813720703125q0.49951171875,0,0.837890625,0.17724609375q-0.1611328125-0.40283203125-0.53173828125-0.781494140625t-0.829833984375-0.69287109375t-0.95068359375-0.515625t-0.926513671875-0.201416015625q-0.12890625,0-0.298095703125,0.040283203125t-0.265869140625,0.008056640625q-0.66064453125,0.193359375-1.087646484375,0.668701171875t-0.69287109375,1.119873046875t-0.378662109375,1.3212890625t-0.11279296875,1.27294921875z M78.783798828125,39.54931640625q0-0.0966796875,0.233642578125-0.515625t0.59619140625-1.007080078125t0.78955078125-1.281005859375t0.85400390625-1.36962890625t0.797607421875-1.224609375t0.56396484375-0.837890625q-0.193359375-0.37060546875-0.66064453125-1.01513671875t-0.958740234375-1.30517578125t-0.85400390625-1.27294921875t-0.362548828125-0.90234375q0-0.46728515625,0.459228515625-0.6123046875t0.894287109375-0.14501953125q0.46728515625,0,0.66064453125,0.08056640625t0.515625,0.451171875q-0.0322265625,0.0966796875,0.233642578125,0.507568359375t0.62841796875,0.8701171875t0.69287109375,0.837890625t0.394775390625,0.491455078125l0.708984375-0.708984375t0.878173828125-0.813720703125t0.958740234375-0.66064453125t0.91845703125-0.265869140625q0.1611328125,0,0.491455078125,0.08056640625t0.330322265625,0.322265625q-0.46728515625,0.49951171875-0.85400390625,0.82177734375t-0.78955078125,0.652587890625t-0.8056640625,0.7412109375t-0.9345703125,1.039306640625q0.2255859375,0.37060546875,0.85400390625,1.224609375t1.27294921875,1.812744140625t1.135986328125,1.8046875t0.491455078125,1.168212890625q0,0.193359375-0.201416015625,0.314208984375t-0.459228515625,0.201416015625t-0.523681640625,0.11279296875t-0.394775390625,0.0322265625q-0.37060546875,0-0.845947265625-0.0966796875t-0.684814453125-0.43505859375q-0.62841796875-0.91845703125-1.087646484375-1.925537109375t-1.119873046875-1.925537109375q-0.12890625,0.2255859375-0.523681640625,1.0634765625t-0.942626953125,1.764404296875t-1.152099609375,1.651611328125t-1.103759765625,0.72509765625l-0.0322265625,0q-0.2255859375,0-0.64453125-0.08056640625t-0.4189453125-0.37060546875z M91.435463867188,30.453369140625q-0.040283203125-0.539794921875,0.064453125-0.990966796875t0.4189453125-0.733154296875t1.007080078125-0.281982421875q0.1611328125,0,0.394775390625,0.040283203125t0.459228515625,0.104736328125t0.378662109375,0.193359375t0.153076171875,0.3544921875l0,1.82080078125q0.62841796875-0.72509765625,1.36962890625-1.039306640625t1.69189453125-0.314208984375q0.72509765625,0,1.43408203125,0.330322265625t1.33740234375,0.878173828125t1.087646484375,1.20849609375t0.668701171875,1.3212890625q0.12890625-0.59619140625,0.2900390625-1.458251953125t0.475341796875-1.651611328125t0.829833984375-1.353515625t1.36962890625-0.56396484375q0.91845703125,0,1.546875,0.66064453125t1.023193359375,1.716064453125t0.59619140625,2.360595703125t0.298095703125,2.578125t0.0966796875,2.376708984375l0,1.732177734375q0,0.193359375-0.14501953125,0.314208984375t-0.362548828125,0.185302734375t-0.451171875,0.08056640625t-0.362548828125,0.01611328125q-0.49951171875,0-0.910400390625-0.153076171875t-0.410888671875-0.781494140625l0-1.4501953125t-0.0322265625-1.877197265625t-0.11279296875-2.01416015625t-0.20947265625-1.828857421875t-0.330322265625-1.3212890625t-0.491455078125-0.515625q-0.40283203125,0-0.580078125,0.451171875t-0.298095703125,1.14404296875t-0.185302734375,1.46630859375t-0.17724609375,1.46630859375t-0.362548828125,1.135986328125t-0.684814453125,0.443115234375q-0.46728515625,0-0.82177734375-0.443115234375t-0.700927734375-1.103759765625t-0.69287109375-1.41796875t-0.765380859375-1.41796875q-0.4189453125-0.6767578125-0.90234375-1.095703125q-0.43505859375-0.40283203125-0.98291015625-0.38671875l-0.08056640625,0q-0.72509765625,0.0322265625-1.135986328125,0.523681640625t-0.62841796875,1.200439453125t-0.265869140625,1.522705078125t-0.04833984375,1.426025390625q0,0.580078125,0.0966796875,1.353515625q0.064453125,0.515625,0.064453125,0.98291015625q0,0.24169921875-0.01611328125,0.46728515625q-0.04833984375,0.6767578125-0.362548828125,1.135986328125t-1.168212890625,0.459228515625q-0.322265625,0-0.8056640625-0.064453125t-0.64453125-0.43505859375q-0.37060546875-0.66064453125-0.56396484375-1.667724609375t-0.2900390625-2.07861328125t-0.11279296875-2.126953125t-0.01611328125-1.812744140625q0-0.53173828125-0.040283203125-1.071533203125z M111.75705078125,34.48974609375q0-1.095703125,0.298095703125-2.11083984375t0.894287109375-1.812744140625t1.490478515625-1.27294921875t2.070556640625-0.475341796875q0.72509765625,0,1.603271484375,0.217529296875t1.651611328125,0.64453125t1.2890625,1.087646484375t0.515625,1.5146484375q0,0.40283203125-0.136962890625,0.6123046875t-0.555908203125,0.20947265625l-0.17724609375-0.0322265625q0.46728515625,1.2568359375,0.8056640625,2.578125t0.66064453125,2.642578125q0.12890625,0.2578125,0.193359375,0.459228515625t0.064453125,0.394775390625q0,0.2578125-0.14501953125,0.427001953125t-0.378662109375,0.249755859375t-0.4833984375,0.11279296875t-0.443115234375,0.0322265625q-0.69287109375,0-1.039306640625-0.24169921875t-0.49951171875-0.66064453125t-0.185302734375-0.942626953125t-0.12890625-1.055419921875q-0.193359375,0.62841796875-0.507568359375,1.224609375t-0.7412109375,1.071533203125t-1.007080078125,0.75732421875t-1.30517578125,0.281982421875q-1.0634765625,0-1.78857421875-0.6123046875t-1.168212890625-1.506591796875t-0.64453125-1.909423828125t-0.201416015625-1.88525390625z M114.04513671875,34.26416015625q0,0.59619140625,0.08056640625,1.2568359375t0.265869140625,1.30517578125t0.475341796875,1.216552734375t0.72509765625,1.007080078125q0.78955078125-0.85400390625,1.168212890625-2.07861328125t0.6767578125-2.360595703125t0.6767578125-1.94970703125t1.168212890625-0.813720703125q0.49951171875,0,0.837890625,0.17724609375q-0.1611328125-0.40283203125-0.53173828125-0.781494140625t-0.829833984375-0.69287109375t-0.95068359375-0.515625t-0.926513671875-0.201416015625q-0.12890625,0-0.298095703125,0.040283203125t-0.265869140625,0.008056640625q-0.66064453125,0.193359375-1.087646484375,0.668701171875t-0.69287109375,1.119873046875t-0.378662109375,1.3212890625t-0.11279296875,1.27294921875z M125.73806152344,34.5703125l0-0.46728515625q0-0.580078125,0.0322265625-1.095703125q0.0322265625-0.72509765625,0.0322265625-1.1923828125q0-0.2578125,0.0322265625-0.588134765625t0.1611328125-0.523681640625q0.1611328125-0.1611328125,0.378662109375-0.330322265625t0.475341796875-0.169189453125q0.82177734375,0,1.2890625,0.185302734375t0.49951171875,0.765380859375l0.064453125,0.49951171875q0.2900390625-0.69287109375,0.7734375-1.716064453125t1.119873046875-1.94970703125t1.43408203125-1.5791015625t1.683837890625-0.652587890625q0.82177734375,0,1.353515625,0.7734375t0.845947265625,1.973876953125t0.443115234375,2.6748046875t0.17724609375,2.892333984375t0.064453125,2.586181640625t0.11279296875,1.764404296875q0.064453125,0.49951171875,0.217529296875,1.055419921875t0.153076171875,1.023193359375q0,0.12890625-0.185302734375,0.249755859375t-0.394775390625,0.201416015625t-0.427001953125,0.12890625t-0.314208984375,0.04833984375q-0.62841796875,0-0.894287109375-0.942626953125t-0.330322265625-2.360595703125t-0.064453125-3.069580078125t-0.11279296875-3.069580078125t-0.459228515625-2.360595703125t-1.103759765625-0.974853515625q-0.69287109375,0-1.43408203125,0.894287109375t-1.27294921875,2.376708984375q-0.515625,1.482421875-0.708984375,3.36767578125q-0.064453125,0.59619140625-0.064453125,1.1923828125q0,1.30517578125,0.27392578125,2.6103515625q0.0322265625,0.2255859375-0.185302734375,0.33837890625t-0.539794921875,0.17724609375t-0.652587890625,0.08056640625t-0.507568359375,0.01611328125q-0.62841796875,0-1.007080078125-0.443115234375t-0.588134765625-1.135986328125t-0.281982421875-1.554931640625t-0.088623046875-1.699951171875z"/><path fill="#" d=""/></svg>
